<?xml version="1.0" standalone="no"?>
<!DOCTYPE svg PUBLIC "-//W3C//DTD SVG 20010904//EN"
 "http://www.w3.org/TR/2001/REC-SVG-20010904/DTD/svg10.dtd">
<svg version="1.0" xmlns="http://www.w3.org/2000/svg"
 width="278.000000pt" height="278.000000pt" viewBox="0 0 278.000000 278.000000"
 preserveAspectRatio="xMidYMid meet">
<metadata>
Created by potrace 1.14, written by Peter Selinger 2001-2017
</metadata>
<g transform="translate(0.000000,278.000000) scale(0.100000,-0.100000)"
fill="#000000" stroke="none">
<path d="M30 2620 l0 -150 670 0 670 0 0 -1000 0 -1000 635 0 636 0 -3 -148
-3 -147 -1290 -5 -1290 -5 1295 0 1295 0 3 1250 c2 688 0 1274 -3 1303 l-6 52
-1305 0 -1304 0 0 -150z m1960 -630 l0 -50 -55 0 -55 0 0 -335 0 -336 132 3
132 3 -3 53 -2 52 55 0 56 0 0 -145 0 -145 -55 0 -55 0 0 40 0 40 -245 0 -245
0 0 49 0 50 43 3 42 3 0 330 0 330 -42 3 -43 3 0 50 0 49 170 0 170 0 0 -50z"/>
<path d="M418 1443 c-26 -4 -28 -8 -28 -54 l0 -49 40 0 40 0 0 -329 0 -330
-37 -3 c-38 -3 -38 -3 -41 -50 l-3 -48 193 0 c210 0 267 9 359 55 151 77 231
270 200 482 -27 182 -119 280 -297 318 -65 14 -353 19 -426 8z m421 -124 c59
-26 87 -53 119 -114 23 -44 27 -65 30 -165 3 -99 1 -123 -17 -171 -51 -135
-128 -189 -273 -192 l-83 -2 -3 325 c-1 179 0 331 3 339 8 21 164 7 224 -20z"/>
</g>
</svg>
